# xmcd
#
# Track frame offsets: 
#        150
#        11604
#        24963
#        40351
#        50863
#        63042
#        74111
#        87417
#        99088
#        109945
#        122555
#        133868
#
# Disc length: 1934 seconds
#
# Revision: 0
# Processed by: cddbd v1.5.2PL0 Copyright (c) Steve Scherf et al.
# Submitted via: ExactAudioCopyFreeDBPlugin 1.0
#
DISCID=a4078c0c
DTITLE=B.B. King - 1967 - Blues On Top Of The Blues
DYEAR=1967
DGENRE=
TTITLE0=Heartbreaker
TTITLE1=Losing Faith In You
TTITLE2=Dance With Me
TTITLE3=That's Wrong Little Mama
TTITLE4=Having My Say
TTITLE5=I'm Not Wanted Anymore
TTITLE6=Worried Dream
TTITLE7=Paying The Cost To Be The Boss
TTITLE8=Until I Found You
TTITLE9=I'm Gonna Do What They Do To Me
TTITLE10=Raining In My Heart
TTITLE11=Now That You've Lost Me
EXTD=
EXTT0=
EXTT1=
EXTT2=
EXTT3=
EXTT4=
EXTT5=
EXTT6=
EXTT7=
EXTT8=
EXTT9=
EXTT10=
EXTT11=
PLAYORDER=
